<svg aria-hidden="true" style="width:0;height:0;position:absolute;overflow:hidden" xmlns="http://www.w3.org/2000/svg"><defs><symbol id="icon-blauer-baum" viewBox="0 0 25 32"><path fill="#5dcaff" style="fill:var(--color1,#5dcaff)" d="M23.262 11.715c0 5.802-4.703 10.505-10.505 10.505S2.252 17.517 2.252 11.715c0-5.802 4.703-10.505 10.505-10.505s10.505 4.703 10.505 10.505z"/><path fill="#93dbff" style="fill:var(--color2,#93dbff)" d="M22.57 11.919c0 5.485-4.447 9.932-9.932 9.932s-9.932-4.447-9.932-9.932 4.447-9.932 9.932-9.932 9.932 4.447 9.932 9.932z"/><path fill="#33a5e1" style="fill:var(--color3,#33a5e1)" opacity=".742" d="M11.392 15.174a5.51 5.51 0 1 1-11.02 0 5.51 5.51 0 0 1 11.02 0z"/><path fill="#00b1ff" style="fill:var(--color4,#00b1ff)" opacity=".99" d="M10.703 15.217a4.865 4.865 0 1 1-9.73 0 4.865 4.865 0 0 1 9.73 0z"/><path fill="#00385d" style="fill:var(--color5,#00385d)" opacity=".742" d="M13.869 10.391a4.23 4.23 0 1 1-8.46 0 4.23 4.23 0 0 1 8.46 0z"/><path fill="#02447c" style="fill:var(--color6,#02447c)" opacity=".99" d="M13.34 10.424a3.735 3.735 0 1 1-7.47 0 3.735 3.735 0 0 1 7.47 0z"/><path fill="#33a5e1" style="fill:var(--color3,#33a5e1)" opacity=".742" d="M24.543 13.85a5.041 5.041 0 1 1-10.082 0 5.041 5.041 0 0 1 10.082 0z"/><path fill="#00b1ff" style="fill:var(--color4,#00b1ff)" opacity=".99" d="M23.775 13.847a4.184 4.184 0 1 1-8.367 0 4.184 4.184 0 0 1 8.367 0z"/><path fill="#6a3300" style="fill:var(--color7,#6a3300)" d="M10.438 31.958s1.879-2.05 1.495-6.789-1.324-8.177-2.861-9.095c-1.661-.992-2.694-.639-3.117.213-.321.648-.576 1.772.235 1.986.951.25 1.623-.299 1.153-.726s-.683-.534-.769-.107c-.085.427.021.427.021.427s-.683-.47-.299-.982.986-.408 1.409.085c.512.598.47 1.196-.213 1.58s-2.348.512-2.306-1.281c.043-1.793 1.217-2.733 3.01-2.519 1.101.131 1.986.854 2.541 1.751s1.836 3.8 1.836 3.8.512-5.338 0-6.96c-.512-1.623-1.665-3.843-2.861-3.843s-2.156.769-2.156 1.58.491 1.793 1.003 1.11.555-1.409.213-1.025-.342.555-.342.555-.252.102-.171-.427c.085-.555.512-.833.939-.662s.662 1.196.043 1.986c-.624.797-1.881.421-2.348-.64-.47-1.067.147-2.427 1.879-2.989 1.213-.394 2.458.303 3.288 1.495.982 1.409 1.153 3.16 1.324 4.569s.299 4.868.299 4.868 1.153-3.587 3.288-4.782c2.135-1.196 3.672.043 3.715 1.238s-.448 2.242-1.516 2.156-1.455-1.107-.79-1.772c.128-.128 1.494-.128 1.58.299.077.386.128.427-.342.256s-1.665-.171-1.067.47c.598.64 1.324.384 1.537-.085s.384-1.238-.128-1.793-2.05-1.281-3.331.64-2.647 5.423-2.647 8.156c0 2.733.726 5.978.897 6.277s.598 1.025.598 1.025z"/></symbol><symbol id="icon-shopping_basket" viewBox="0 0 24 24"><path d="M12 17.016q.797 0 1.406-.609t.609-1.406-.609-1.406T12 12.986t-1.406.609-.609 1.406.609 1.406 1.406.609zM9 9h6l-3-4.406zm8.203 0h4.781q.422 0 .727.281t.305.703q-.469 1.875-1.406 5.273t-1.172 4.289q-.422 1.453-1.922 1.453H5.485q-1.5 0-1.922-1.453l-2.531-9.281q-.047-.094-.047-.281 0-.422.305-.703T2.017 9h4.781l4.359-6.563q.281-.422.844-.422.609 0 .844.422z"/></symbol><symbol id="icon-star-full" viewBox="0 0 32 32"><path d="m32 12.408-11.056-1.607L16 .783l-4.944 10.018L0 12.408l8 7.798-1.889 11.011L16 26.018l9.889 5.199L24 20.206l8-7.798z"/></symbol></defs></svg>