<svg aria-hidden="true" style="position: absolute; width: 0; height: 0; overflow: hidden;" version="1.1" xmlns="http://www.w3.org/2000/svg" xmlns:xlink="http://www.w3.org/1999/xlink">
<defs>
<symbol id="icon-blauer-baum" viewBox="0 0 25 32">
<path fill="#5dcaff" style="fill: var(--color1, #5dcaff)" d="M23.262 11.715c0 5.802-4.703 10.505-10.505 10.505s-10.505-4.703-10.505-10.505c0-5.802 4.703-10.505 10.505-10.505s10.505 4.703 10.505 10.505z"></path>
<path fill="#93dbff" style="fill: var(--color2, #93dbff)" d="M22.57 11.919c0 5.485-4.447 9.932-9.932 9.932s-9.932-4.447-9.932-9.932c0-5.485 4.447-9.932 9.932-9.932s9.932 4.447 9.932 9.932z"></path>
<path fill="#33a5e1" style="fill: var(--color3, #33a5e1)" opacity="0.74214" d="M11.392 15.174c0 3.043-2.467 5.51-5.51 5.51s-5.51-2.467-5.51-5.51c0-3.043 2.467-5.51 5.51-5.51s5.51 2.467 5.51 5.51z"></path>
<path fill="#00b1ff" style="fill: var(--color4, #00b1ff)" opacity="0.99" d="M10.703 15.217c0 2.687-2.178 4.865-4.865 4.865s-4.865-2.178-4.865-4.865c0-2.687 2.178-4.865 4.865-4.865s4.865 2.178 4.865 4.865z"></path>
<path fill="#00385d" style="fill: var(--color5, #00385d)" opacity="0.74214" d="M13.869 10.391c0 2.336-1.894 4.23-4.23 4.23s-4.23-1.894-4.23-4.23c0-2.336 1.894-4.23 4.23-4.23s4.23 1.894 4.23 4.23z"></path>
<path fill="#02447c" style="fill: var(--color6, #02447c)" opacity="0.99" d="M13.34 10.424c0 2.063-1.672 3.735-3.735 3.735s-3.735-1.672-3.735-3.735c0-2.063 1.672-3.735 3.735-3.735s3.735 1.672 3.735 3.735z"></path>
<path fill="#33a5e1" style="fill: var(--color3, #33a5e1)" opacity="0.74214" d="M24.543 13.85c0 2.784-2.257 5.041-5.041 5.041s-5.041-2.257-5.041-5.041c0-2.784 2.257-5.041 5.041-5.041s5.041 2.257 5.041 5.041z"></path>
<path fill="#00b1ff" style="fill: var(--color4, #00b1ff)" opacity="0.99" d="M23.775 13.847c0 2.311-1.873 4.184-4.184 4.184s-4.184-1.873-4.184-4.184c0-2.311 1.873-4.184 4.184-4.184s4.184 1.873 4.184 4.184z"></path>
<path fill="#6a3300" style="fill: var(--color7, #6a3300)" d="M10.438 31.958s1.879-2.050 1.495-6.789-1.324-8.177-2.861-9.095c-1.661-0.992-2.694-0.639-3.117 0.213-0.321 0.648-0.576 1.772 0.235 1.986 0.951 0.25 1.623-0.299 1.153-0.726s-0.683-0.534-0.769-0.107c-0.085 0.427 0.021 0.427 0.021 0.427s-0.683-0.47-0.299-0.982 0.986-0.408 1.409 0.085c0.512 0.598 0.47 1.196-0.213 1.58s-2.348 0.512-2.306-1.281c0.043-1.793 1.217-2.733 3.010-2.519 1.101 0.131 1.986 0.854 2.541 1.751s1.836 3.8 1.836 3.8 0.512-5.338 0-6.96c-0.512-1.623-1.665-3.843-2.861-3.843s-2.156 0.769-2.156 1.58c0 0.811 0.491 1.793 1.003 1.11s0.555-1.409 0.213-1.025-0.342 0.555-0.342 0.555-0.252 0.102-0.171-0.427c0.085-0.555 0.512-0.833 0.939-0.662s0.662 1.196 0.043 1.986c-0.624 0.797-1.881 0.421-2.348-0.64-0.47-1.067 0.147-2.427 1.879-2.989 1.213-0.394 2.458 0.303 3.288 1.495 0.982 1.409 1.153 3.16 1.324 4.569s0.299 4.868 0.299 4.868 1.153-3.587 3.288-4.782c2.135-1.196 3.672 0.043 3.715 1.238s-0.448 2.242-1.516 2.156-1.455-1.107-0.79-1.772c0.128-0.128 1.494-0.128 1.58 0.299 0.077 0.386 0.128 0.427-0.342 0.256s-1.665-0.171-1.067 0.47c0.598 0.64 1.324 0.384 1.537-0.085s0.384-1.238-0.128-1.793-2.050-1.281-3.331 0.64-2.647 5.423-2.647 8.156c0 2.733 0.726 5.978 0.897 6.277s0.598 1.025 0.598 1.025z"></path>
</symbol>
<symbol id="icon-shopping_basket" viewBox="0 0 24 24">
<path d="M12 17.016q0.797 0 1.406-0.609t0.609-1.406-0.609-1.406-1.406-0.609-1.406 0.609-0.609 1.406 0.609 1.406 1.406 0.609zM9 9h6l-3-4.406zM17.203 9h4.781q0.422 0 0.727 0.281t0.305 0.703q-0.469 1.875-1.406 5.273t-1.172 4.289q-0.422 1.453-1.922 1.453h-13.031q-1.5 0-1.922-1.453l-2.531-9.281q-0.047-0.094-0.047-0.281 0-0.422 0.305-0.703t0.727-0.281h4.781l4.359-6.563q0.281-0.422 0.844-0.422 0.609 0 0.844 0.422z"></path>
</symbol>
<symbol id="icon-star-full" viewBox="0 0 32 32">
<path d="M32 12.408l-11.056-1.607-4.944-10.018-4.944 10.018-11.056 1.607 8 7.798-1.889 11.011 9.889-5.199 9.889 5.199-1.889-11.011 8-7.798z"></path>
</symbol>
</defs>
</svg>
